<svg width="512" height="512" viewBox="0 0 512 512" fill="none" xmlns="http://www.w3.org/2000/svg" role="img" aria-labelledby="title">
  <title id="title">رمز كويت شوب</title>
  <rect width="512" height="512" rx="150" fill="#111111"/>
  <path d="M90 166C90 123 123 90 166 90H346C389 90 422 123 422 166V346C422 389 389 422 346 422H166C123 422 90 389 90 346V166Z" fill="#007A3D"/>
  <path d="M90 191H422V256H90V191Z" fill="white"/>
  <path d="M90 256H422V321H90V256Z" fill="#CE1126"/>
  <path d="M90 191L181 256L90 321V191Z" fill="#111111"/>
  <path d="M211 169C237 145 277 133 328 133C374 133 409 145 433 168L402 205C384 190 361 182 334 182C302 182 278 191 261 209C245 227 237 251 237 281C237 311 245 335 261 353C278 371 302 380 334 380C361 380 384 372 402 357L433 394C409 417 374 429 328 429C277 429 237 417 211 392C184 368 171 331 171 281C171 231 184 194 211 169Z" fill="#F8F4E7"/>
  <circle cx="393" cy="150" r="30" fill="#CE1126"/>
</svg>
